PathFileType	4	(X/Y/Z)	Patient3_L_KneeIso_Processed.trc
DataRate	CameraRate	NumFrames	NumMarkers	Units	OrigDataRate	OrigDataStartFrame	OrigNumFrames
100.000000000000	100.000000000000	4	33	mm	100.000000000000	1	       301
Frame#	Time	L.Toe			R.Toe			L.Midfoot.Superior			Neck			R.Midfoot.Superior			R.Shoulder			L.Shank.Lateral			R.Wrist			L.Shoulder			R.Midfoot.Lateral			L.Heel			R.Heel			R.Patella			L.Wrist			R.Shank.Inferior			R.Shank.Lateral			L.Elbow			L.Asis			L.Shank.Inferior			L.Patella			L.Thigh.Lateral			L.Thigh.Superior			R.Elbow			R.Shank.Superior			L.Thigh.Inferior			R.Thigh.Superior			L.Midfoot.Lateral			R.Thigh.Lateral			L.Shank.Superior			R.Thigh.Inferior			Sacral			R.Asis			Sternum			
		X1	Y1	Z1	X2	Y2	Z2	X3	Y3	Z3	X4	Y4	Z4	X5	Y5	Z5	X6	Y6	Z6	X7	Y7	Z7	X8	Y8	Z8	X9	Y9	Z9	X10	Y10	Z10	X11	Y11	Z11	X12	Y12	Z12	X13	Y13	Z13	X14	Y14	Z14	X15	Y15	Z15	X16	Y16	Z16	X17	Y17	Z17	X18	Y18	Z18	X19	Y19	Z19	X20	Y20	Z20	X21	Y21	Z21	X22	Y22	Z22	X23	Y23	Z23	X24	Y24	Z24	X25	Y25	Z25	X26	Y26	Z26	X27	Y27	Z27	X28	Y28	Z28	X29	Y29	Z29	X30	Y30	Z30	X31	Y31	Z31	X32	Y32	Z32	X33	Y33	Z33	

1	1.000000000000	702.881016421375	64.313655401469	362.221700474109	689.817278468207	41.362290030892	588.876617650782	584.326551182237	113.785448631508	369.699835183343	448.474836683946	1484.487652302364	641.285716869905	564.448799695797	90.658153189637	590.120045312572	473.936376371606	1437.713612981607	788.435058367803	490.174092594056	373.815785971957	331.690143797241	571.571514832332	1164.260453715489	1108.599860723145	497.869554608154	1473.457988539712	502.790775938571	478.214066411645	30.525360981421	638.590247931630	408.704983390489	60.497320579295	384.239391685585	391.289917315169	36.717926330516	580.507842844593	600.770294014460	493.325174898706	643.772446169846	653.173653224083	1318.164603946044	498.290632274100	533.212820188899	213.986005668585	619.806134911362	487.107334406033	341.683321506451	704.733113787450	536.303983912776	1183.916868838943	320.071787270906	580.167508778271	995.191492206732	447.486814686249	552.498753062495	261.807036999519	381.128488416067	630.416727568638	518.038769879529	429.202409780826	549.271148158805	695.997511897729	371.795602443831	638.564723239889	769.799428347794	430.848382189127	386.670171860989	1127.482358500982	935.703533029840	568.600531384391	385.449876743649	651.565731645635	631.623354950529	641.808361532680	428.121848875795	631.671043900233	712.796141033868	686.007980825575	491.171939595769	57.449552667619	324.502172514993	543.125889738239	657.061560989997	735.968031916004	582.619194126317	415.380919922587	388.846711553101	616.267106747471	600.342065879348	661.826376541521	413.448256563874	1003.537533624584	591.425460508602	589.686086676936	973.451271350104	710.978342762706	587.044343286717	1393.811107993731	644.452000745590	
2	1.010000000000	699.932342023791	63.746784676237	361.173884407693	689.815496376999	41.371033637095	588.886959849189	581.732788858195	113.977783326545	369.102248442236	448.601034883390	1484.518981273438	641.471007370982	564.463023555054	90.670857075741	590.117239304127	474.081072262607	1437.725644046125	788.604755792374	490.095652762262	374.714843113206	331.884059720218	571.595582474362	1164.304557533996	1108.663916963829	497.967225019043	1473.476897692071	502.959692149132	478.215638499465	30.524801701143	638.588670451452	405.799267172402	61.834254121841	383.974919604486	391.244039757089	36.743600534499	580.465839249854	600.683747275807	493.340091314610	643.842736471862	653.196466855469	1318.115623012886	498.414223919307	533.196733026289	213.994886642770	619.811422687905	487.071611417076	341.650663011031	704.767453257236	536.248167333469	1183.955138699262	320.186517787094	579.961141937208	995.158256322720	447.664246207647	551.415734649970	262.015612691331	380.909313642284	632.057687176165	517.484632590007	429.374706052950	550.118478513810	695.902681826167	372.126030780019	639.023892042165	770.046835402987	431.152333716707	386.639680891916	1127.525178304242	935.836773503126	568.557663601151	385.451516789730	651.615320290492	632.905684847054	641.983374885216	428.318718295840	631.526082272982	712.804216970525	686.083364099644	488.080449725579	58.388361007741	324.012430808999	543.010181297994	657.029165260715	736.073819790254	583.125111046217	415.223675439311	388.895135788222	616.140945395290	600.351170676303	661.889838937196	413.266940504679	1003.547793935343	591.625341544391	589.535994509877	973.427071263172	711.122898048461	587.126606009401	1393.770986840389	644.592767154694	
3	1.020000000000	696.696458834446	63.131850384934	360.063514988821	689.813745883394	41.381363607064	588.898543010096	578.900605109448	114.214485679153	368.456042441034	448.723808561020	1484.551633365034	641.658031886843	564.475793845930	90.683023223037	590.115688902231	474.221240713165	1437.738999189413	788.776852089630	489.994486582489	375.706313710405	332.060055128812	571.616865265566	1164.344676686025	1108.730573593618	498.059146579928	1473.494876698491	503.130976729338	478.217077726449	30.523937732932	638.587268891633	402.621867583847	63.361774653608	383.662735964105	391.193051933105	36.770307569633	580.422260070135	600.594416200438	493.355627588094	643.922620909218	653.207522869836	1318.060450440255	498.537909123766	533.175591561264	214.005831006799	619.825937656382	487.029754426708	341.619642064063	704.810891065782	536.174511489936	1183.991891799122	320.302054963947	579.760947290516	995.127778510308	447.854423609350	550.210986416390	262.275985274752	380.660690634279	633.766397134463	516.915012363937	429.526766192073	551.044323003221	695.816885486215	372.454511842450	639.542887823963	770.322310888797	431.465061540822	386.601432767570	1127.571528654710	935.974675824622	568.507870170728	385.452381393174	651.673676057692	634.283781209650	642.184970296788	428.510745918826	631.373225366659	712.814158052454	686.168115602796	484.709639580386	59.457738434086	323.473799789129	542.884099818469	656.997823897942	736.187196470567	583.624845388406	415.075613548899	388.931329789286	616.009106109580	600.362322842215	661.962939141221	413.079944499025	1003.555551953977	591.823512705551	589.372819868234	973.405521273403	711.279392090909	587.201435571812	1393.726937748363	644.734858310343	
4	1.030000000000	693.171924242821	62.473076810374	358.902413877807	689.812428986447	41.393523091458	588.910798637236	575.831496124604	114.501592743306	367.766717232884	448.842318530362	1484.585192972164	641.846314623519	564.487187371567	90.694948107728	590.115717127858	474.355350809071	1437.753539540527	788.951334833332	489.870008983847	376.790462525269	332.215048655678	571.635189089587	1164.381120909072	1108.801112438060	498.144577713288	1473.511490839275	503.304571675438	478.218400415956	30.522680068273	638.586061514862	399.175388283547	65.090767868191	383.301550925912	391.137842392175	36.797241832708	580.378249307060	600.505573275620	493.371166288699	644.015839350244	653.206644859240	1317.998986360412	498.662160666366	533.149177264857	214.018916160512	619.852747214124	486.981896143535	341.590765450400	704.866000434825	536.082809726642	1184.026005095330	320.419430164476	579.570600854250	995.099780833992	448.058501859733	548.882600224674	262.593447775885	380.384633048000	635.530630796743	516.333843751504	429.656873538974	552.043557109583	695.741713293138	372.779182150813	640.119445520301	770.623821782657	431.786209233799	386.555188413661	1127.621618252091	936.118569524152	568.452184031556	385.451466921943	651.743204466833	635.750137357789	642.411727134057	428.697712997070	631.213041894976	712.825428047563	686.267437742634	481.063883235050	60.665661184309	322.889063033133	542.745629823811	656.967332738141	736.309437133987	584.111859172069	414.939840097614	388.955664665817	615.873709076433	600.375070215505	662.050604651908	412.889377468533	1003.561404952656	592.018155102833	589.196387966875	973.386236462945	711.449645035509	587.268291595280	1393.678926480583	644.878600867102	
